/* XPM */
static char *e508cde0b8824aa5a5dc8bbdde4384eb[] = {
/* columns rows colors chars-per-pixel */
"64 64 47 1 ",
"  c #28200C",
". c #202020",
"X c #2C2C2C",
"o c gray19",
"O c #343434",
"+ c gray22",
"@ c #400000",
"# c #4C0000",
"$ c #580000",
"% c #640000",
"& c #700000",
"* c #7C0000",
"= c #403018",
"- c #543C1C",
"; c #5C4020",
": c #6C4824",
"> c #744C28",
", c #000070",
"< c gray25",
"1 c #484848",
"2 c #4C4C4C",
"3 c gray33",
"4 c gray36",
"5 c #646464",
"6 c gray44",
"7 c #7C7C7C",
"8 c #880000",
"9 c #980000",
"0 c #A40000",
"q c #A80000",
"w c #B00000",
"e c #BC0000",
"r c #C80000",
"t c #D40000",
"y c #E00000",
"u c #EC0000",
"i c #885830",
"p c #9C6038",
"a c #A86840",
"s c #B47044",
"d c #BC7848",
"f c #C87C4C",
"g c #DC8854",
"h c #FCA85C",
"j c gray55",
"k c #989898",
"l c gray66",
/* pixels */
"3+311111311111131+111111133333311111111133333331111+++113311111+",
"+00999999999&113llkkkkkkkkkkkkkkkkkk71+3uuuuyyyyyytttttrrrreee01",
"108**9%&9%8&#X13lj5j5j5j5j6j6j5j5jj73X1+t0rwrwwr&r*rwr8w0*r9r0*X",
"19&$&%&&$&%$#X13kj5575377367736737632X13t00*%08&80*80080*80$0&%X",
"19$&&$&&&$&@ X13k5j757375737355736532X11t&0%80%0&0*080%09*0*0&#X",
"18&$%&$&$%&$ X13jj575567353753655373OX+1e&0*08%0&&00&0800*0$08#X",
"1*$&&$&&$&$@ X11jj5737373736535736532X+1e90%80*8&8*080%0*80*0&@X",
"1*&$%@$$@$%$ X+36633<53353<35353<533OX+1e&&$&&#8#&$8#&#8%#&8&8@X",
"1$###        X+1522222222222OOOOOOOOOX+18%%%%%%%%%%$$$$$$$$$@@@X",
"11XXXXXXXX...X+31XXXXX.....XX....XXXXX13+XXXXXXXXXXX.....XXXXXXX",
"3++++1111+++++1+1111111+++3111++1111113+1333345543311<+<3+31113+",
"uttteeeeeeeeeee0131hhggggggfffffffdddddddddddddddddda1<3uutttttt",
"w88w9*w*98w%w80@+13h>sfid:idiifpaiiiaiaiaif:fipdfpfa=+1+ur*w8w8w",
"8080*88%08%800&@X11gs>aiaaia:a>:iaiaia:aai:aia>ia>a>=+13rw*08*09",
"&0089%0*889%08&@X+1g>aipii:ii>ai:aii:iiia;iia>a>aa>>=X<1r*000*0*",
"08808**8*09%0%&@X+1g>aaia:ia:>a:iaiiia:ai;a:a>i>a>a>=X+1rw*0*09*",
"&0%0&8*9%0%800&@X13gs;aiai:i;i>:aii;ia:i;ia:ia>ia>a>=.+1w*00$0*8",
"&w%&#*&9&9&$9&&@X13sa>i;>p>i:>i;>p>p:i>ii;p>>i->p>i>=.<3w0*&$&9&",
"@############@@@+13a:::::::::::::;;;;;;;;;;;;;;;;;;==.1+0%@%@@%@",
"XXX.XXX...XXX..X+1+1+OXXXXXXOO++OXXX.....XXX....XXXXX+131XXXXXXX",
"331++13+3+11++++113111<+<+<+<1113+31<+++<<113<++<111313+3<+<3111",
"3llkkkkkkkjjjjjjjjjjjjjjjjj7133qq99999999998888888888888888888*1",
"3l57j5j5j575757k57575j727k3++13q8%9*8&*8&8*8%$*&%&*%&**&*%&*#*@X",
"+l7576753577565752737525737+X1498**$*$&%*&$*$&*$*%*%*&*$**%*%%@X",
"1j2773527273756725735752573+X3598%*%*$*%**%*%*&$*%%**%*&**%*#%@X",
"1j757<723575357552572752732+X349%*%*&$&*%*$&$&*%&%&%*&*$*%&*%%@X",
"3j327<557272727525752725557+X1399%*%*&*&%*$*#%%#*#*#*#**&$#%&%@X",
"1k7233323<33525335332363633+X+39*%*%&#%%%%$&%&#*#%*#%&#*#*#*%%@X",
"17622222222222222<<<<<<<<<++X+3*$$$$$$$$$$$$$$############@#%#@X",
"11+XXXXXXXXXXXXXXXXX+++XXXXXX111XXXXXXXX.....X+++X...XXXXXXXXXXX",
"3333311+1+++1355333111<<++<++<31113+3131<+<+<13311<+<1113+31113+",
"eeeeeeeeee01+3ggggggggddddddddddddddddda133ruttttttttteeeeeeeeee",
"0w0w9rwwr0@+1+ga:a>aa:aiaa>ai:aa:aa>aia=+13t0*0&00%0*8*0&080*0&0",
"0*8090*08&@X13g:aiiaiap>aii>iiai:a>ia:a=+33t0$0&08%080*889&9*98&",
"8*09*0*90&@X1+g:aaipa>a>aia;a-iiai>paia=+35t0*0&080800*0&9809*0&",
"08*0909*8&@+13gp:aiai;piii>ia:ai:ip>iai=+35t*00&0%00**0*08998*&8",
"08*0*0*90&@+11g:ai;pa>iiaia>i-:p:ap>aia=+13r0*00&088*0*0&980*80&",
"&&89&&9&&&@+11p:aa;ai>a>a:a;i:ai:p>pa:i=X13r0$0&008080*0&9&9*00&",
"@@#######@@X11a:::::::::;;;;;;;;;;;;;;==X110%%%%%%%%%%%%%%%$$$$@",
"XXXXXXXXXXXX131X....XX+++X.....XXXXXXXXX+111XXXX++1+XX...XXXXXXX",
"313+1++11++++11+++111113311+++31113+1+1+11313+313453211+31313+3+",
"+q**999998888888888888888888888*+3+uutttttttteeeeeeeeeeeeeeeee01",
"39%%&*$**%**%*%&*$*%*&*$*$**%%*@+13u00%0%0$0&0$08$98&08*0*9&80@X",
"19%#*&$*&*%*$&#**$*#&*&$*%*%*%*@X11t80%8%*$8$9*0$0%0&8&08*90%8@X",
"19%#*$&%$*$*&%&*$*&&#%*#*#&$&&%@X+1t80%%80*$0*$90$0&&0&0*0&8%0@X",
"+9%%*&$*&%**%*#&*$*#&*#**%***%%@X+1t0%08%0$0&9**$8%0*8989*&080@X",
"39%#&*$*$*$*$*%*$$*#&%*%&$*$&%*@.+3t0%%0%*$0$0$9$0%8&0&*0*98%&@X",
"+9%#*$&%&*%*&&&**$&%#$*#*%*%*%*@.+3r&0%8%0$*0*$9&8%0&0&0*9&0%0@X",
"3*##$$$$$$$####################@X130%%%%%%%%%$$$$$###########@@X",
"+1XXXXXXXXXX+++X....XXX....XX..XX1+1XXXXXX...XO+OX.XXXX...XXXXXX",
"3+3+3131111355313+3131<+++<1311+113+311111111233321111+o..o+1131",
"ttttteeeeeeeeeeee0131hhggggggggddddddddddddddda1+3uttttteeeeeeee",
"*0$00%9%0*r*0%0*0@X11gaaaa:a-aia:a:a-a:a:a;a>:=+13t0%80$0&0&0%0&",
"0**0*0%9*%0$*%8%8@X11gia>a:>-ipiai:--:ii>i;a:a=O13t%0$0&0&80&08#",
"0*$*0%9%*0*$08%9*@X1<gii>a:iia;a-a--a:a:i;ii:>=X13t%0&&008&8&%&8",
"*9$9%%0%0*0$*&%0%@X1<ga->a:a-aip:a--i:a:ai;>p:=X13t0%$08&&0&0%&0",
"%0*0%0%80%0*$80*8@X1<g-aa:ai>i;i----:ii:i>;i>:=X11t%080&08&&$0&0",
"%0**%99%9%*$0%0%9@X11g-a>a:iii-p---ai:ai:a;a;i=X+1t%0$&$0&0&$%0#",
"*9$0%%8%**0$0%&8*@X13fa->a:a-i:a:->:a:ia:i>i:i=X+1r%%$0$0&0&0%0&",
"################@@X11a=====------------------==.130@@###########",
"XXXXXXXXXXXXXXXXXXX131+OOXXXXXXXXXXXXXX.....X...+11XXXXXX.....XX",
"+3+3+++1111133+1111333331113111311+111<++<++<1<+<311+31111<+<111",
"3333333333333333333333333333333333333333333333333333333333333333",
"+,,,,,,,,,,,,,,,,,,,,,,,,,,,++,,,,,,,,,,,,,++,,,,,,,,,,,,+,,,,,+"
};
