/* XPM */
static char *d8d0712a560e4452dcb8395ba7f40952[] = {
/* columns rows colors chars-per-pixel */
"64 64 57 1 ",
"  c #28200C",
". c #202020",
"X c #2C2C2C",
"o c gray19",
"O c gray22",
"+ c #400000",
"@ c #4C0000",
"# c #580000",
"$ c #640000",
"% c #700000",
"& c #7C0000",
"* c #403018",
"= c #543C1C",
"- c #585400",
"; c #706C00",
": c #744C28",
"> c #400040",
", c #480048",
"< c #500050",
"1 c #580058",
"2 c #600064",
"3 c #6C0070",
"4 c gray25",
"5 c #484848",
"6 c gray33",
"7 c #646464",
"8 c gray44",
"9 c #7C7C7C",
"0 c #880000",
"q c #980000",
"w c #A40000",
"e c #B00000",
"r c #BC0000",
"t c #C80000",
"y c #D40000",
"u c #E00000",
"i c #EC0000",
"p c #FC0000",
"a c #FC2020",
"s c #B45400",
"d c #CC6000",
"f c #FC7800",
"g c #A86840",
"h c #848400",
"j c #9C9C00",
"k c #FC8820",
"l c #CCC400",
"z c #FCF400",
"x c #E88C58",
"c c #840084",
"v c #9C009C",
"b c gray55",
"n c #989898",
"m c gray66",
"M c #B4B4B4",
"N c #C0C0C0",
"B c #D0D0D0",
/* pixels */
"O655555655555565O555555566666655555555566666665555OOO556655555OO",
"iiyyyyyyyyyw556iiyyyyyyyyyyyyyyyyyyw5O6iiiiuuuuuuyyyyyttttrrrw5.",
"zteey0wy0tw$X56ir0r0r0r&rqrqr&r&rtw%X5Oywteteet%t&tet0ew&tqtwzXX",
"lhMMMMMMMMMMMMMMMMMMMMMMMMMMMMMMMMMMMMMMMMMMMMMMMMMMMMMMMMMMll;j",
"j-8899999999999999999999999999999999999999999999999999999888;x-:",
"=w9999nnnnnnnnnnnnnnnnnnnnnnnnnnnnnnnnnnnnnnnnnnnnnnnnnn9899#gXX",
"r&n9aw++6%%%%%%%%%%%%%%%%%%%%%%%%%%%%%%%%%%%%%%%%wepu9+++9N8#+XX",
"rwm9wNn8+9mNBNNMMMMMMMMMMMMMMMMMMMMMMMMMMMMMMMMNNNNN9+98na98#+XX",
"&$Mn+nNn9bnmmb9mBNMMMMMMMMMMMMMMMMMMMMMMMMMMMMb37NMmmm8mBw89++XX",
"5XBm+nmNn99nn618mBBNNMMMMMMMMMMMMMMMMMMMMMMNNb72<nmmnnmB9+9n..XX",
"OOBM68nMNn99b<1119mBNNNNNMM<86<<<<sdfMMMMNNb721<<nnnnmBN76bm.XXO",
"yyMB+9nmMNn875,<<119mMMMMMM<<<<<9<ssdkMMMb721<<<5nnnmNNm9+nm##ye",
"00MB%nbnmM71875,,<<1119bMMM8<<<<<<sbMMb72211<<<588<7mNmb9+mM##eq",
"w0MBemnbn7325875,,,,c1118bMM<<<<<<bMb7221c<<<,5863227mn9b%mM##q%",
"wwMMqMnbb,2321575O,,3,1111MM<<<<<<MM1221<3,,O575<2233nb9b%mM##&#",
"00MM0Nmnb,,2322156O>>,,,16MM<<<<<<MM6,,,,,,O55,<12333b9bb%mM##&0",
"w$MM%BMmn5,,23321,>>>>,,bMM8<<<<<<8MMb,,,>>>,,<123336b9bn%MM##0#",
"e$MM%BNMn75,1223213>>>,b<8M<<<<<<<<M8,b,>>,1,,12333699bbm%MM##%#",
"@@MM%BB7<866512231c<>>,<,<MM<<<<<<MM,,,,,,13<1223697557nm%MM+#+@",
"XXMM%MB1<,566652231c<<<,<,97<<<<<<79,,,,,,311226b975>>,nm%MM..X.",
"65MM%MB21<,,>O55671111,,,<<<<<<<<<<,,,,,,<<167b96<,>>>,mm%MM.XXO",
"iiNN&NM22<<,>>>,,1v111,,<<<<<<<<<<<,,,,,<11v111<<,>>>>1mm%MM##XO",
"i0BBqBN121<,,>>>,,c111<<<<<<<<<<<<<<,,<<111v111<,,>>>,1nm&MM#+XO",
"ieNN0Nn812<<,>>,>,311<<<<<<66788766<<<11111c11<,,>>>>,8nm&MM#+X.",
"r$MM&Mnn851<,,,<,<13<<<<<<<73v33v37<<11111c11<,,,>>>58nnM0MM#+XX",
"reMM%M<1578877654o,<1c1<<<<9v3333v9<1<11c1116654O4567523NqNN#+XX",
"r%mm%m<<1111<,<,<,<,<1c3<<<63333336<<13c1111<,,,,>,,<123BqBB#+XO",
"twmm$m<<<111<<,<,<,<<<<<<<<9v3333v9<1<1<111<,,,,,,,<1122NqNN#+XX",
"wqnn@n<<1<1<1<<<<<<<<<<<<<<63v53v36<<1<111<<,,,,,,,<<232N0NN#+XX",
"5Omm#m<<<1<1<<<<<<6<<<<6<<<96353369<1<61<<<6,,,,,,,<<22<M&MM..XX",
"66mm$m7<<<<<<<<58<<<<<6<<<<69966996<<<16<<,<,85,,,<<1217M%MM.XXO",
"rrMM%Mn7<<<<588<<<<<<8<<<<<<<6996<<<<1<<8<<,,,<885<<117nM%MM##rw",
"ewMM%MMMnnnn8<<<<<<<8<<<<<<<<<<<<<<<<<<<<8,<,,,,<8nnnnMmm$mm##w0",
"&0MM%MMnn8<<<<<<<<<8<<<<<<<<<<<<<<<<<<<<<<8,<,<,<1118nnnn#nn##%0",
"&wMM%MM<<<<<<<<<<<8<<<<8<8<<<<<<<<<<8<8<<<<8,<,<11111<<bb@bb##%%",
"0&MM%MM<<<<<<<<<<8<<<<7n8<<<<<<<<<<<<8n7<<<<8<<<<1111<<nn#nn##00",
"0&MM&MM8<<<<<<<<8<<<<<n<<<<<<<<<<<<<<<<n<<<<<8<<11111<8nn$nn##%0",
"%0MM&MMn<<<<<<<8<<<<<n<<<<<<<<<<<<<<<<<<n<<<<<8<<1<1<<nmm$mm##%#",
"+@MM0MMM8<<<<<8<<<<<<<<<<<<<<<<<<<<<<<<<<<<<<<<8<<<1<8MMM$MM##+@",
"XXNN0NNNM8<<<8<<<<<<n<<<<<<<<<<<<<<<<<<<<n<<<<<<8<<<8MMMM%MM..X.",
"56BBwBBBMMnnnn<<<<<nMv<<<<<<8<<<<8<<<<<<vMn<<<<<nnnnMMMMM%MM.XXO",
"iyNNqNNNMMMMMnn<<<nMMM8<<<<<<<<<<<<<<<<8MMMn<<<nnMMMMMMNN0NN##X.",
"ywMMqMMMMMMM9ss9MMMM9s<<<<<<<<<<<<<<<<<<s9MMMM9ss9MMNNNNN0NN#+XO",
"ywMM0MMMMMMMssssssssss::<<8M<<<<<<M8<<::ssssssssssNNNNBBBqBB#+XX",
"y0MM0MMMMMMMM97:ssss::9MMMM<<<<<<<<MMMM9::ssss:79MMMNNNNNqNN#+XX",
"ywMM&MMMMMMMbssssssssssMMM<<<<<<<<<<MMMssssssssssbMMMMMNN0NN#+X.",
"ywmm%mmmmMMMs::bss:Mb:sM9<<<<<<<<<<<<9Ms:bM:ssb::sMMMMMMM%MM#+XO",
"twmm%mmmmmmM:9bMs:MMMM96<<<<<<<<<<<<<<69MMMM:sMb9:MMMMMMM%MM#+X.",
"w$MM%MMMMMMMMMMMs:MM96<<<<<<<<<<<<<<<<<<69MM:sMMMMMMMMMMM%MM++XO",
"5XMM%nMMMMMMMMMMbsM<<<<<<<<<9<<<<9<<<<<<<<<MsbMMMMMMMMMMn%MM..X.",
"O6MM%9MMMMMMMMMMMMM96<<<<<7M<<<<<<M7<<<<<69MMMMMMMMMMMMM9%MM.XXO",
"yyMM9%9nMMMMMMMMMMMMM96<<7M9<<<<<<9M7<<69MMMMMMMMMMMMMn9%9MM##rw",
"w#9MM9%%%9nMMMMMMMMMMMMMMMM<<<<<<<<MMMMMMMMMMMMMMMMnb%%%9nM9##%$",
"&&#9MMMn9%%%%9nMMMMMMMMMMMM7<<<<<<7MMMMMMMMMMMMn9%%%%bnMMM9###@0",
"&###69MMMMMn9%%%9nMMMMMMMMMM7<<<<7MMMMMMMMMMn9%%%9nMMMMM96###%00",
"q#####69MMMMMMn9%%%9nMMMMMMMM7<<7MMMMMMMMn9%%%9nMMMMM96#####$%w$",
"w&w$#$####69MMMMMn9%%%9nMMMMMM77MMMMMMn9%%%9nMMMMM96######%#w%w@",
"w&&$qq$######69MMMMMn9%%%%9nMMMMMMn9%%%%9nMMMMM96#######%w%#$w@@",
"q#w$$0$&&w######+69MMMMMn9%%%9nn9%%%9nMMMMM96+XXX####w#w%w%w$w%$",
"@@@@@@@@@@@@@@@++..X69MMMMMn9%%%%9nMMMM96@@@++.XX#++@@@@@@@@@@@@",
"XXXXXXXXXXXXXXXXXX.....X69MMMMMMMMMM96.....X...XXXXXXXXX.....XX.",
"6O6OOO555556OOOOXXXXXXX.....69MM96X.....XXXXXXXXOO55655554O4555.",
"6666666666666666665OOOXX.................XOOO5566666666666666665",
"*************************************************************** "
};
