/* XPM */
static char *_bac03aa1f5742d692ea34ffc5b7cc3f[] = {
/* columns rows colors chars-per-pixel */
"64 64 131 2 ",
"   c #131312",
".  c #1A1A16",
"X  c #1E1C1A",
"o  c #211F1D",
"O  c #23211F",
"+  c #252422",
"@  c #292623",
"#  c #272824",
"$  c #2B2925",
"%  c #2F2E2C",
"&  c #302D2C",
"*  c #35332E",
"=  c #38352F",
"-  c #363430",
";  c #3A3632",
":  c #3C3933",
">  c #413C35",
",  c #423F3A",
"<  c #47433D",
"1  c #48453F",
"2  c #4D4945",
"3  c #4A494A",
"4  c #514C47",
"5  c #57534F",
"6  c #5A544B",
"7  c #555352",
"8  c #5A5652",
"9  c #5C5A55",
"0  c #5C5A59",
"q  c #60594F",
"w  c #645E55",
"e  c #666156",
"r  c #696356",
"t  c #666259",
"y  c #6B655B",
"u  c #6E695D",
"i  c #70665C",
"p  c #736B5E",
"a  c #796D5E",
"s  c #6A6560",
"d  c #6F6960",
"f  c #736C62",
"g  c #7B6F61",
"h  c #777161",
"j  c #7A7264",
"k  c #75736A",
"l  c #7A756B",
"z  c #7E796E",
"x  c #7A7770",
"c  c #7E7A71",
"v  c #817B6F",
"b  c #817C71",
"n  c #868375",
"m  c #8A8275",
"M  c #8E8579",
"N  c #93877A",
"B  c #948B7B",
"V  c #9B8D7D",
"C  c #97907F",
"Z  c #99927F",
"A  c #A3927E",
"S  c #968B80",
"D  c #9B8D80",
"F  c #979182",
"G  c #9B9384",
"H  c #9F9887",
"J  c #9E9789",
"K  c #9F988A",
"L  c #A29684",
"P  c #A29986",
"I  c #A99B87",
"U  c #A69788",
"Y  c #A59B8A",
"T  c #AB9D8B",
"R  c #ACA28D",
"E  c #B2A48E",
"W  c #BAA68E",
"Q  c #B4AA8F",
"!  c #ADA391",
"~  c #AFA998",
"^  c #B2A693",
"/  c #BAA791",
"(  c #B5AA94",
")  c #BBAC95",
"_  c #B4A79A",
"`  c #B5AC9A",
"'  c #BBAD9A",
"]  c #BDB196",
"[  c #B6B09D",
"{  c #BDB29C",
"}  c #B7AFA1",
"|  c #BCAFA1",
" . c #B7B1A1",
".. c #BDB3A1",
"X. c #BFB8A5",
"o. c #C1AE96",
"O. c #C1AF9B",
"+. c #C3B196",
"@. c #CBB397",
"#. c #C3B49C",
"$. c #C9B69D",
"%. c #C6B99E",
"&. c #CABA9E",
"*. c #D1BD9E",
"=. c #C3B6A2",
"-. c #C9B7A2",
";. c #C5BAA3",
":. c #CBBCA3",
">. c #C5BBA9",
",. c #CBBDA9",
"<. c #D1BEA4",
"1. c #D0BFAA",
"2. c #CDC09F",
"3. c #D0C09F",
"4. c #CEC1A5",
"5. c #CDC1AB",
"6. c #D2C2A5",
"7. c #D3C4AB",
"8. c #D9C5AB",
"9. c #D6C9AE",
"0. c #DACAAE",
"q. c #CDC3B0",
"w. c #D2C5B0",
"e. c #D5C9B2",
"r. c #DBCDB2",
"t. c #D9CFB9",
"y. c #DED0B6",
"u. c #DDD1BC",
"i. c #E1CEB2",
"p. c #E2D1B4",
"a. c #E3D4B9",
/* pixels */
"0 0 0 0 0 0 9 0 0 0 9 9 9 0 0 9 0 0 0 0 7 3 9 0 0 0 0 0 9 0 0 9 0 9 0 0 0 0 0 0 0 8 3 7 0 0 0 0 0 0 0 0 0 0 0 9 0 0 0 0 0 0 8 t ",
"q #.! ^ R T ^ ) o.E R ! ^ Y P Y R I R ' 6 X L ` ^ ^ I E ] ) W R ! ( R U U R T T ] N O w =.^ _ ! R ) +./ E E ^ ^ Y U ! T I _ ! f ",
"u 7.<.5.6.%.0.0.&.$.%.:.6.$.{ =.=.+.<.a.p + Q 7.6.7.-.7.0.9.$.%.4.4.<.#.#.;.#.$.p.^ $ i 0.4.9.6.6.0.0.<.%.4.5.6.:.#.:.-.$.8.5.m ",
"r 9.<.4.$.) @.%.#.) +.@.;.-.) -.O.+.O.r.r O E 7.7.:.) @.*.&.O.o.+.%.:.{ #.%.O.O.0.R + r r.7.6.#.+.$.4.%.O.@.#.:.=.O.:.$.O.<.:.b ",
"t 1.7.%.#.&.6.*.;.) / =.,.#.] %.{ ' { r.r O Y e.4.%.%.6.3.2.{ / O.,.;.' #.%.' ' w.T # e e.9.&.&.3.6.3.;.) o.,.1.{ #.:.=.' 1.%.b ",
"t <.#.%.%.%.4.*.*.-.{ #.=.-.` :.] ` ' r.u + I <.=.%.%.:.6.*.<.#.{ #.<.#.-.>.' ' 7.R # e 7.%.;.%.<.6.<.<.:.{ #.:.=.=.:.O.' -.;.n ",
"t ;.%.;.%.+.4.%.@.O.-.$.O.=.;.1.[ ' -.7.w + P ;.-.;.+.*.:.#.+.-.-.%.-.#.4.=.` #.0.L + e 5.-.:.%.%.<.%.#.#.-.:.$.-.<.1.[ ..6.{ z ",
"e =.#.{ ..{ :.;.>.%./ O.) ] %.' ` ;.-.0.r O P %.#.{ X.%.<.;.1.) { O./ #.=.` X.-.0.I @ t 4.#.#.X.%.<.:.5.%.o.#.o.{ :.[ { >.6.%.b ",
"y 6.=.5.;.' -.;.=.+.+.@.) &.6.{ ;.:.` q.r # R 4.4.5.{ %.-.>.;.+.+.o.$.6.-.{ 4.{ >.Y % r 7.:.q.=.{ :.4.;.$.$.+.O.6.4.#.;.5. . .m ",
"y 7.X.{ =.' #.^ { #.:.1.#.{ #.;.{ ..` ;.9 + ! 5. .=.' %.' [ #.%.7.:.#.#.=.=.=.{ X.F # y e.;.=.=.=.{ ' { -.1.5.-.#.=.-.=.=...~ l ",
"e 9.:.;.{ { %.{ { %.;.-...' ` ..;.X...u.r + R 7.;.;.{ %.#.{ %.;.:.=.{ } } -.>...e.! # t 0.4.>.%.%.%.{ %.-.<.-.=.{ ..=.,.X.5.,.b ",
"r 5.{ #.{ 4.#.{ 4.-.{ { | #.[ ` =.'  .q.w + R ;.#.{ ;.:.O.:.4.%.O.| =...` #.O.[ q.H + r 9.;.O.;.:.%.=.4.<.{ =.=.=. .' =.[ >...l ",
"p 6.%.{ O.#.:...>.#.=.=.) ) =.O.$.#._ >.q $ E 4.%.#.#.-.;.;.%.{ >.O._ #.#.#.%.' >.F # p 8.=.;.+.-.,.>.-.-.;.-.` { -.-.=.=.} ` l ",
"p 9.;.4.#.+.#.4.] ' ` ..' ) ) :.:.=.' ,.w $ Q 5.4.;.#.#.:.%.O.' { #.) o.=.6.,.' >.J # p 0.<.6.#.#.:.&.%.' ..X.{ ) O.1.1.=.=.` b ",
"p 9.;.:.:.{ :.6.&.` ) =.| ( ) ' | ..>.5.e $ ] 5.-.<.#.%.7.4...` ....' ` O.} | -.w.L # f y.:.<.&.{ :.8.2.[ ' -...) ) =.| =.,.{ b ",
"f 8.{ +.&.;.4.#.-.] O.o._ ` O.,.#.O.` 7.w @ Q :.O.&.&.5.;.%.#.{ O.) ` O.-.:.=.' 1.K # p 0.#.%.<.4.5.;.%.=.O.O.[ ' -.:.=.=.=.#.c ",
"t 5.] #...#.{ <.=.=.>...#.{ O.#.%.O.{ q.w o ! X.#.#.;.#.-.-.=.:.>.{ O.#.#.#.#.{ 5.J # r 5.#.;.=.#.;.<.;.;.:.;.#.#.=.=.-.%.=...x ",
"u w.%.:.;.#.o.O.#.{ ' } =.%._ ' { { =.,.q + ! 5.-.:.=.O.+.+.{ { { ..<.O.' ..{ =.5.F + u e.;.<.:.#.+.#.=.=.{ ..>.-.` | ..=.:.` k ",
"d 9.;.=.>.[ O.] #.<.<.-.' ) ) {  .=...e.e + ^ 7.#.,...#.{ O.<.<.,...) ' ' ..X.=.e.Y + u y.,.>.-.{ #.O.-.<.5.:.{ +.' =.X.=.5.;.z ",
"u w.q.=.;.%.4.#.%.6.e.<.O.{ O.=.5.:.&.9.e + ! t.>.>.#.4.;.#.4.0.0.=.{ { =.:.4.&.9.L + i u.5.;.>.<.4.#.<.9.r.4.{ $.#.-.1.6.6.{ v ",
"w %.] Q ( / ( ! E / ] ^ ! ^ E ( ( ) ^ ( q O P %.Q Q ] ( ! E E +.) ! ~ ^ ^ ( ) ) ( M # w :.' Q ] ] ~ Q E ) +.^ ~ _ ^ ] ) ] ` U k ",
"# + + + + O O O O @ + o O + + + + + + +     O # + + + + O O O + O O O O + + + # + X   . @ # # + O O O O @ + O O O + + + + + O % ",
"5 Y S G B B Z L A V B C Z B m N B M B P 4 O m G G G N Z H A V V B G V M M C N B L v o 6 I G G B C G A A V B Z Z N M C B M G B y ",
"p r.6.6.7.&.i.0.6.&.:.5.6.$.#.-.-.+.2.a.p @ ( 8.6.7.*.8.p.0.<.:.4.7.<.#.=.:.+.$.a.^ $ i p.7.0.7.6.i.p.8.6.4.7.8.-.=.:.:.%.0.7.n ",
"r 7.:.<.%.) &.*.{ ) @.+.-.%.) -.#.+.+.a.i O ! 6.4.<.O.+.*.;.{ @.+.-.<.' #.$.+.#.r.R # e 0.7.4.-.+.*.6.+.O.@.%.<.-.O.<.#.+.6.:.b ",
"r 7.9.-.%.%.3.*.%.] / ;.>.#.' %.{ { #.0.e O Y r.7.%.%.6.*.2.{ Q +.,.;.{ #.-.{ { 9.T @ w r.9.6.%.<.3.6.%.) ) :.,.#.+.-.=.{ 1.-.b ",
"t 4.=.#.%.-.4.<.<.=.] { -.=.` <.' ] ' r.u O Y <.%.%.&.4.<.<.:.{ { :.<.' =.-.' ) 7.R $ e 7.-.%.&.4.6.6.<.-.{ =.<.;.{ ,.{ ' :.:.n ",
"t ;.%.:.%.+.4.&.+.$.;.$.#.=.#.1.[ ' #.e.t O I :.%.:.] <.<.@.@.>.-.+.=.=.5.-.` #.9.Y + e 5.-.4.%.#.6.&.$.-.:.$.-.:.:.5.{ { 4.#.c ",
"e =.{ { { #.:.;.=.$.( #.O.] %..._ =.:.0.e + P ;.#.{ { %.4.;.:.+.' #.) %.=.' ..;.r.P @ t 5.=.%.{ -.:.:.5.%.O.=.O.O.:...{ ;.7.=.v ",
"r 4.=.5.;.' &.=.>.+.O.O.o.+.<.) #.>.[ w.i + Y 4.4.5.{ %.:.,.-.+.@.+.+.6.#.{ :.=.,.R $ r q.;.5.=.#.4.,.;.$.+.@.o.4.4.{ =.:.X.=.m ",
"u 7.X...=.] =.` =.#.&.<.#.#.;.>.#.=.` X.w + ! 4...=.{ =.{ { X.;.1.-.#.=.;.=.=.{ X.F # u 9.;.>.=.#.#. .=.;.4.<.;.%.:.:.;.=. .~ l ",
"t 9.%.%.{ { %.] { O.:.:...' [ #.=.X.[ t.t O R 7.;.X.{ %.{ ] { %.1.-.{ { ..X.;...e.Y # e 0.4.;.{ %.%.{ #.=.<.1...{ ....,.X.,.;.c ",
"r 5.#.%.{ <.#.#.;.<.{ O.} =.` ' -.[ X.e.e O R 5.;.#.;.&.O.>.6.#.' ..=.{ [ =.=.' e.K # r e.:.=.;.<.$.=.4.<.{ { =.=.} =.-...,.=.x ",
"f 4.#.{ O.#.>.=.:.#...=.) ' =.O.#.' _ >.9 @ E :.#.#.#.;.=.:.-.=.>.O._ #.#.O.+.` =.G # i 7.=.#.#.-.>.;.<.;.=.-.' { >.+.$.#.} ` l ",
"a 8.;.:.] #.=.-.#.{ ' =.` ) o.:.<.-.` ,.w @ ( 6.:.#.#.%.;.%.#.[ ..{ ' ) -.1.<...>.G # a e.:.:.#.;.;.;.%.....=.{ ) $.1.1.:..._ c ",
"u e.-.<.&.{ #.9.#.[ ` =.| ) _ ' } } -.5.e @ ( 5.:.<.#.#.6.4.{ ` ..=.' ) ' ..| =.w.L # u p.:.<.:.#.4.6.%.[ { =.=.) ) ......,.{ b ",
"h 0.{ #.<.#.1.#.:.) ' { ( ` O.:.=.#.' 7.e # Q 4.{ *.-.4.:.:.#.` O.` ` ) -.:.#...q.Y # p r.#.%.*.:.4.:.-.#.' { ` ' #.,.=.=.-.=.x ",
"t 5.) #.#.=.=.%.{ %.:.#.O.O.=.#.$.{ { w.e O ! =.+.=.;.=.:.=.=.<.-.#.#.#.=.%.$.' 5.K + y 7.+.=.-.%.>.:.=.;.<.=.{ #.;.-.-.=.=...l ",
"y q.=.-.=.#.o.@.#.{ '  .=.-.( [ ..{ =.>.9 O ! 4.-.=.=.+.$.$.=.{ } ..:.O.` ....=.5.F + u w.:.<.;.#.+.-.-...{ X.-.:.` } =.=.,.` l ",
"u 9.;.;.,.' ' ) #.;.>.=.' O.) ' [ ..=.e.w + ( q.=.1...O.) O.;.:.:...#.O.)  ...=.7.P + p t.;.5.;.{ #.O.$.4.,.-...@.' { X...5.=.l ",
"u 9.5...;.#.4.{ %.6.7.<.' ] { { >.:.%.7.t O E r.;.X.X.:.%.#.6.8.8.=.] ' { >.:.%.8.K # r a.5.;.X.;.4.%.<.9.0.5.' #.{ ;.,.4.<.{ v ",
"u 9.4.%.;.<.;.{ +.*.6.;...#.#.;.:.<.#.,.t @ ^ e.;.:.2.<.X.#.%.6.<.=.=.#.;.:.<.:.4.G $ u y.4.;.4.6.;.{ #.*.9.%.=.;.;.:.6.4.:.` c ",
"% : : ; : = = = = : : * = - : ; = : ; ; o   * > : : = : = = = > ; - - ; : ; ; : ; &   + , : : : : = = = > : - - = : : ; : : * : ",
"2 j d f y u u h h u u i p u r y u r d j : . r f f d y u p h a u u p d y r p y i g 9 . < l f d i u f g g p u d h i r d d y f i 5 ",
"p a.4.7.6.:.0.p.8.<.:.7.5.-.#.;.;.#.<.a.f @ ) e.6.e.<.8.a.0.6.4.5.w.<.=.=.>.;.:.a.^ $ a a.9.9.7.6.p.p.8.<.4.w.7.-.=.:.:.-.0.7.n ",
"r 4.:.4.:.O.:.<.#.) +.#.<.#.] -.O.@.$.a.y + R 6.4.4.O.$.6.:.+.@.+.:.<.' #.$.+.@.p.E @ r 8.6.7.-.%.<.6.#.@.$.%.4.-.O.:.=.+.6.1.m ",
"t 9.9.2.#.+.*.$.%.] / %.>.O.] #.#.' { r.t o R r.6.:.#.*.*.&.{ / +.-.;.{ #.;.{ { 9.I + e r.9.6.#.&.3.3.%.) o.:.:.=.#.:.%.{ :.%.v ",
"t <.;.+.%.<.6.*.<.#./ O.>.%.` :.' ' ' r.u + I <.%.%.%.6.3.6.-.{ { >.:.] =.=.' ' 7.R # w 7.:.%.&.6.6.6.6.#.` -.5.#.{ :...' :.;.n ",
"t 4.%.;.%.#.4.%.$.$.>.$.+.:.=.1.{ ) O.e.r + I :.&.4.{ <.:.&.@.-.-.+.:.{ ,.-.' ' 8.I + w 6.;.4.%.%.6.:.@.:.:.$.-.:.:.5.{ ' <.=.c ",
"e =.%.O.{ #.&.%.#.$.) { O.) #.=.` ..<.9.t O H >.#.{ #.%.:.X.%.O.#.#.' #.:.[ { ,.0.L # e 5.;.=.{ %.<.:.-.#.' =.O.#.:...{ ;.8.#.z ",
"e >.#.;.=.' %.;.,.#.o.@./ #.<.) =.;.} e.i O I :.;.;.{ %.:.,.-.+.+.O.@.<.#.[ ;.=.q.R $ t 5.;.4.X.{ :.,.,.$.@.+.o.%.<.[ =.,.=.;.n ",
"u 7.X.,.=.' -.{ ..#.-.:.+.;.:.;.#.=.` X.w + ! 4.;.,.' =.#.=.;.%.:.-.=.:.:.#.=.....G @ i 0.>.,.#.=.-.=.=.-.<.:.=.:.1.:.;.;.{ _ z ",
"t 9.;.%.{ ' #.` ' { :.1.=.' { ..=...[ e.e O ! 7.X.{ { #.] ] ' ;.1.>.' ' ..=.=. .q.Y # t r.4.X.X.%.{ ` { ;.4.1.=.' | =.>.X.X.X.c ",
"t 4.%.-.{ 4.#.#.2.-.{ #...{ ` ' -.[ =.t.e O R 5.:.=.;.%.X.%.<.=.O.=.=.{ ` -.=...e.Y # e e.:.%.=.:.;.%.4.:.#.#.=.=.[ =.:...5.>.c ",
"p 4.{ { ] #.-.{ :.=.#.=.) ' =.' { ] ~ ,.q # E -.{ { #.:.{ ;.:.=.=.O.` =.{ o.O.` >.G # u 7.#.#.#.-.;.-.,.;.=.=.' #.=.{ O.{  .` l ",
"f 7.;.&.' %.>.;.#.{ | #.` ( ' <.4.-._ >.e @ ( 4.:.%.O.-.;.%.#.{ =.{ ) ) :.4.4.{ X.G @ a 0.:.<.O.%.1.;.%.#.=.=.{ ) =.6.6.;..._ c ",
"u e.:.6.%.{ #.6.#.[ ` =...) ( O... .#.5.e @ _ 6.<.<.#.#.4.2.{ ` ....O.o.) =.| ..5.J # u y.<.6.:.#.:.6.%.` ..-.=.) o.=.X...>.[ b ",
"j 0.#.#.*.#.5.-.:.] ( { _ ` ' -.{ #.=.w.w # ] 4.{ *.%.:.:.<.#.( O.[ ` ` -.=.=.=.w.P # a r.=.-.*.:.5.4.-.' ) | [ _ =.:.=.-.>.#.v ",
"y 5.) +.%.$.;.=.{ %.:.{ ' #.=.#.&.{ ' w.e O ! ;.#.#.%.-.;.=.#.>.-.{ +.#.;.$.#.` 5.K + y 7.#.%.&.;.;.:.#.:.:.#.{ $.-.:.-.#...=.x ",
"y 5.#.;.=.#.+.$.=.{ {  .=.#.' ' ..{ =.>.0 O ! :.$.>.;.+.%.-.;.#. .=.;.] ` =.#.=.5.F + y w.;.-.>.%.+.:.:.=.....-.$.) ..=.=.,.} f ",
"d 9.=.;.:.{ ) ) O.=.=...O.#.` )  . .=.7.e O ( 5.;.<.=.' ] ' %.=.=...#.' ) } ..=.9.G O p r.=.4.:.#.O.) #.-.;.=.=.#.' { ....,.{ k ",
"y w.5...X.{ :.{ %.6.7.:.` ) O.O.;.;.#.9.w # ! 9.=.X.{ >.%.#.6.7.7.#.) ] O.=.:.#.7.P # y y.5.X.X.=.:.#.<.9.9.:.` O.{ =.>.<.<.#.z ",
"y r.5.4.4.6.4.=.$.4.8.4.;.;.=.:.4.4.&.5.e O ^ r.:.4.6.6.;.%.<.8.9.;.;.=.;.4.6.<.7.H # i u.7.4.4.6.4.;.-.7.9.4.;.:.;.4.7.6.4.{ c ",
"2 h f y u i u t i p f t y u u u y f u u < + t j u f u u y t i f d r u u f d d d p 8 # 1 j h f u p u y i h f y u u p d f f d t 8 "
};
