/* XPM */
static char *cfd13aaede514116cbf3a94480fb8796[] = {
/* columns rows colors chars-per-pixel */
"64 64 16 1 ",
"  c #202020",
". c #2C2C2C",
"X c gray22",
"o c gray25",
"O c #484848",
"+ c gray33",
"@ c gray36",
"# c #646464",
"$ c gray44",
"% c #7C7C7C",
"& c gray55",
"* c #989898",
"= c gray66",
"- c #B4B4B4",
"; c #C0C0C0",
": c #D0D0D0",
/* pixels */
"O*=-;:::::::::::::::::::::;-=*O+O*=-;:::::::::::::::::::::;-=* .",
"O%;;;;;;;;;;;;----;-;-;-;-;-;&O+O%;;;;;;;;;;;;----;-;-;-;-;-;& .",
"O%;;-;;;--;--------;-;-;---;-&O+O%;;-;;;--;--------;-;-;---;-& .",
"O%--;--;;---=-----;-;-;----=-&O+O%--;--;;---=-----;-;-;----=-& .",
"O%-;----;--=-=;--;---;-;-;=-=&O+O%-;----;--=-=;--;---;-;-;=-=& .",
"O%-;----;--=-=;--;---;-;-;=-=&O+O%-;----;--=-=;--;---;-;-;=-=& .",
"O%--;-----=-=;-;-=----=-;=-==&O+O%--;-----=-=;-;-=----=-;=-==& .",
"O%---;---=-=-=;=;==-=-======-&O+O%---;---=-=-=;=;==-=-======-& .",
"O%--=-=====-=-======-=;==--==&O+O%--=-=====-=-======-=;==--==& .",
"O%=*-*====*=-==*=-=-*===*==*=&O+O%=*-*====*=-==*=-=-*===*==*=& .",
"O%=&*=*&=*=*=**=**=*===*=&*=*&O+O%=&*=*&=*=*=**=**=*===*=&*=*& .",
"O%&&&*&*&=&=*&=*&*&*&*&=&*&=*&O+O%&&&*&*&=&=*&=*&*&*&*&=&*&=*& .",
"O%*&*&***&*&&=***&*&*&*&*&*&&&O+O%*&*&***&*&&=***&*&*&*&*&*&&& .",
"O#############################O+O############################# .",
"X.............................XOX............................X  ",
"OOOOOOOOOOOOOOOOOOOOOOOOOOOOOOOOOOOOOOOOOOOOOOOOOOOOOOOOOOOOOO  ",
"++++++++++++++++++++++++++++++++++++++++++++++++++++++++++++++..",
":::::::::;-=*O+O*=-;:::::::::::::::::::::;%@+O+O*=-;::::::::::==",
"-;-;-;-;-;-;&O+O%;;;;;;;;;;;;----;-;-;-;-*%%$X+O%;;;;;;;;;;---&&",
"--;-;-;---;-&O+O%;;-;;;--;--------;-;-;--&$=&O+O%;;-;;;-------&&",
"-;-;-;----=-&O+O%--;--;;---=-----;-;-;---%;-&O+O%--;--;;-=----&&",
"=----=-;=-==&O+O%--;-----=-=;-;-=----=-;&=;=&O+O%--;-----=;-;;*&",
"==-=-======-&O+O%---;---=-=-=;=;==-=-==&=;=-&O+O%---;---=-=;==%*",
";---;-;-;=-=&O+O%-;----;--=-=;--;---;-*&;=-=&O+O%-;----;--=;--&&",
"=----=-;=-==&O+O%--;-----=-=;-;-=---*&&&=-==&O+O%--;-----=;-;;*&",
"==-=-======-&O+O%---;---=-=-=;=;==*&*=*&&==-&O+O%---;---=-=;==%*",
"===-=;==--==&O+O%--=-=====-=-==&&&&*=;=&&-==&O+O%--=-=====-===%%",
"-=-*===*==*=&O+O%=*-*====*=-==&&=-=*==&&-=*=&O+O%=*-*====-==**$%",
"*=*===*=&*=*&O+O%=&*=*&=*=*=*&***=*==&&-=*=*&O+O%=&*=*&=*=**==%$",
"*&*&*&=&*&=*&O+O%&&&*&*&=&=*&**&*&*&*&%-*&=*&O+O%&&&*&*&=*&=**$#",
"&*&*&*&*&*&&&O+O%*&*&***&*&&=***&*&*&&%*&*&&&O+O%*&*&***&&=***$$",
"#############O+O##########++#########+#######O+O##############OO",
"..............................................................  ",
"OOOOOOOOOOOOOOOOOOOOOOOOOOOOOOOoOOOOOOOOOOOOOOOOOOOOOOOOOOOOOO  ",
"++++++++++++++++++++++++++++++o+O+++++++++++++++++++++++++++++..",
"O*=-;:::::::::::::::::::::;-=*O+O*=-;:::::::::::::::::::::;-=* .",
"O%;;;;;;;;;;;;----;-;-;-;-;-;&O+O%;;;;;;;;;;;;----;-;-;-;-;-;& .",
"O%;;-;;;--;--------;-;-;---;-&O+O%;;-;;;--;--------;-;-;---;-& .",
"O%--;--;;---=-----;-;-;----=-&O+O%--;--;;---=-----;-;-;----=-& .",
"O%-;----;--=-=;--;---;-;-;=-=&O+O%-;----;--=-=;--;---;-;-;=-=& .",
"O%--;-----=-=;-;-=----=-;=-==&O+O%--;-----=-=;-;-=----=-;=-==& .",
"O%---;---=-=-=;=;==-=-======-&O+O%---;---=-=-=;=;==-=-======-& .",
"O%--=-=====-=-======-=;==--==&O+O%--=-=====-=-======-=;==--==& .",
"O%=*-*====*=-==*=-=-*===*==*=&O+O%=*-*====*=-==*=-=-*===*==*=& .",
"O%=&*=*&=*=*=**=**=*===*=&*=*&O+O%=&*=*&=*=*=**=**=*===*=&*=*& .",
"O%&&&*&*&=&=*&=*&*&*&*&=&*&=*&O+O%&&&*&*&=&=*&=*&*&*&*&=&*&=*& .",
"O%*&*&***&*&&=***&*&*&*&*&*&&&O+O%*&*&***&*&&=***&*&*&*&*&*&&& .",
"O#############################O+O############################# .",
"OX...........................XXOXX...........................X .",
"OOOOOOOOOOOOOOOOOOOOOOOOOOOOOOOOOOOOOOOOOOOOOOOOOOOOOOOOOOOOOO  ",
"++++++++++++++++++++++++++++++++++++++++++++++++++++++++++++++..",
":::::::::;-=*O+O*=-;:::::::::::::::::::::;-=*O+O*=-;::::::::::==",
"-;-;-;-;-;-;&O+O%;;;;;;;;;;;;----;-;-;-;-;-;&O+O%;;;;;;;;;;---&&",
"--;-;-;---;-&O+O%;;-;;;--;--------;-;-;---;-&O+O%;;-;;;-------&&",
"-;-;-;----=-&O+O%--;--;;---=-----;-;-;----=-&O+O%--;--;;-=----&&",
";---;-;-;=-=&O+O%-;----;--=-=;--;---;-;-;=-=&O+O%-;----;--=;--&&",
"=----=-;=-==&O+O%--;-----=-=*-;-=----=-;=-==&O+O%--;-----=;-;;*&",
"==-=-======-&O+O%---;---=-=-=*=;==-=-======-&O+O%---;---=-=;==%*",
"===-=;==--==&O+O%--=-=====-=-=&====-=;==--==&O+O%--=-=====-===%%",
"-=-*===*==*=&O+O%=*-*====*=-=**=-=-*===*==*=&O+O%=*-*====-==**$%",
"*=*===*=&*=*&O+O%=&*=*&=*=*=&*-**=*===*=&*=*&O+O%=&*=*&=*=**==%$",
"*&*&*&=&*&=*&O+O%&&&*&*&=&=****&*&*&*&=&*&=*&O+O%&&&*&*&=*&=**$#",
"&*&*&*&*&*&&&O+O%*&*&***&*&&****&*&*&*&*&*&&&O+O%*&*&***&&=***$$",
"#############O+O#############+###############O+O##############OO"
};
