/* XPM */
static char *_bea9e7ae74249488eee36f4e4c7d3ac[] = {
/* columns rows colors chars-per-pixel */
"305 37 65 1 ",
"  c #004040",
". c black",
"X c #202020",
"o c #2C2C2C",
"O c #7C80FC",
"+ c #5C60FC",
"@ c #0000A4",
"# c #484848",
"$ c #007070",
"% c #000070",
"& c #9C9CFC",
"* c #4040FC",
"= c gray22",
"- c #2024FC",
"; c #9C4C00",
": c #CC6000",
"> c #B45400",
", c #E46C00",
"< c #A85400",
"1 c #FC7800",
"2 c #543C1C",
"3 c #FC8820",
"4 c #6C4824",
"5 c #744C28",
"6 c #80502C",
"7 c #885830",
"8 c #483818",
"9 c #5C4020",
"0 c #A0643C",
"q c #DC8854",
"w c #B47044",
"e c #9C6038",
"r c #382C14",
"t c #FCA470",
"y c #FCB890",
"u c #C87C4C",
"i c #FCB080",
"p c #FCC4A4",
"a c #E88C58",
"s c #FC9C60",
"d c #000040",
"f c #403018",
"g c #FCD8C4",
"h c #FCE8DC",
"j c #A86840",
"k c gray33",
"l c #D8D8FC",
"z c #B8BCFC",
"x c #28200C",
"c c gray44",
"v c #00007C",
"b c #D0D0D0",
"n c #0000A8",
"m c #0000FC",
"M c gray99",
"N c #A80000",
"B c #BC7848",
"V c #F0945C",
"C c #905C34",
"Z c #FCD4BC",
"A c #D08050",
"S c #008484",
"D c #FCBC9C",
"F c #005858",
"G c gray100",
/* pixels */
"                                                                                                                                                                                                                                                                                                                 ",
"................................................................................................................XXXXXXXXXXXXXXXXXXXXXXXXXXXXXXXXXXXXXXXXXXXXXXXXXXXXXXXXXXXXXXXXXXXXXXXXXXXXXXXXXXXXXXXXXXXXXXXXXXXXXXXXXXXXXXXXXXXXXXXXXXXXXXXXXXXXXXXXXXXXXXXXXXXXXXXXXXXXXXXXXXXXXXXXXXXXXXXXXXXXXXXXXXXXXXo  ",
"OOOO++++++++++++++++++++++++++++@OOOOOOOOOO+++++++++++++++++++++++++++++++++++++++++++++++@OOOO++++++++++++++++++++++++++++@OOOOOO+++++++++++++++++++++++++#OOO+++++++++++++++++++++++++++++++++++@OOOOOO+++++++++++++++++++++++++++++@OO+++++@OOOOOOOOOOOOO+++++++++++++++++++++++++++++++++++++++++++++++++@$  ",
"O@@@@@@@@@@@@@@@@@@@@@@@@@@@@@@@%O@@@@@@@@@@@@@@@@@@@@@@@@@@@@@@@@@@@@@@@@@@@@@@@@@@@@@@@@%O@@@@@@@@@@@@@@@@@@@@@@@@@@@@@@@%O##############################%O@@@@@@@@@@@@@@@@@@@@@@@@@@@@@@@@@@@@@%O@@@@@@@@@@@@@@@@@@@@@@@@@@@@@@@@@@%O@@@@@@%O@@@@@@@@@@@@@@@@@@@@@@@@@@@@@@@@@@@@@@@@@@@@@@@@@@@@@@@@@@@@@%$  ",
"O@@@&&@@@@O&&@&&@&&@@O&&@&&@@@@@%O@@@@@@@@@@@@@@@@O&*@@+&*@@O&+@@@OOO@@@O&&@@@@@@@@@@@@@@@%O@@@&&@@@&&@&&@&&@@O&&@@O&*@@@@@%O#######=============##########%O@@&&@&&@@O&&@@@O&@@@&&@+&&&&&@&&@&&@@%O@@@@@@O&@@@&&-&&&@&&-&&&@@O&+@@@@@%O@@@@@@%O@@@@@@@@@@@@@@@@@@@@@@@@@@@@@@@@@@@@@@@@@@@@@@@@@@@@@@@@@@@@@%$  ",
"O@@@&&@@@O&&&@&&@&&@O&&&@&&@@@@@%O@@@@@@@@@@@@@@@&&&&O+&&&+O&&&*@O&&&O@O&&&@@@@@@@@@@@@@@@%O@@@&&@@@&&@&&@&&@O&&&@&&&&O@@@@%O######o;:>::,:,,,,,,:;=#######%O@@&&@&&@O&&&@@O&&+@@&&@&&&&&&@&&@&&@@%O@@@@@O&&+@@&&+&&&@&&+&&&@O&&&*@@@@%O@@@@@@%O@@@@@@@@@@@@@@@@@@@@@@@@@@@@@@@@@@@@@@@@@@@@@@@@@@@@@@@@@@@@@%$  ",
"O@@@&&@@@&&@@@&&@&&@&&@@@&&@@@@@%O@@@@@@@@@@@@@@&&&@&*&&*&*&&*&O@&&@&&@&&@@@@@@@@@@@@@@@@@%+@@@&&@@@&&@&&@&&@&&@@+&&@&*@@@@%O#####o;<>:>::::::,1,,:;=######%O@@&&@&&@&&@@@@&&&+@@&&@@@&&@@@&&@&&@@%O@@@@@&&&+@@&&O&&&@&&O&&&@&&*&O@@@@%O@@@@@@%O@@@@@@@@@@@@@@@@@@@@@@@@@@@@@@@@@@@@@@@@@@@@@@@@@@@@@@@@@@@@@%$  ",
"+@@@&&@@@&&@@@&&@&&@&&@@@&&@@@@@%+@@@@@@@@@@@@@@O&&&@@&&@@@&&@&&@&&@&+@&&@@@@@@@@@@@@@@@@@%+@@@&&@@@&&@&&@&&@&&@@+&&&@@@@@@%+#####2<<<<<<<<<>>:,131:4######%+@@&&@&&@&&@@@-&+&O@@&&@@@&&@@@&&@&&@@%+@@@@-&+&O@@&&O&&&@&&O&&&@&&@&&@@@@%+@@@@@@%O@@@@@@@@@@@@@@@@@@@@@@@@@@@@@@@@@@@@@@@@@@@@@@@@@@@@@@@@@@@@@%$  ",
"+@@@&&@@@&&&&@&&@&&@&&&&@&&@@@@@%+@@@@@@@@@@@@@@@O&&&@&&@@@&&@&&@&&&O@@&&&&@@@@@@@@@@@@@@@%+@@@&&@@@&&@&&@&&@&&&&@O&&&@@@@@%+####o;<<;2544<5566:13,,7=#####%+@@&&&&&@&&&&@+&@&&@@&&@@@&&@@@&&&&&@@%+@@@@+&@&&@@&O&O&&@&O&O&&@&&@&&@@@@%+@@@@@@%+@@@@@@@@@@@@@@@@@@@@@@@@@@@@@@@@@@@@@@@@@@@@@@@@@@@@@@@@@@@@@%$  ",
"+@@@&&@@@&&@@@&&@&&@&&@@@&&@@@@@%+@@@@@@@@@@@@@@@@O&&O&&@@@&&@&&@&&&&+@&&@@@@@@@@@@@@@@@@@%+@@@&&@@@&&@&&@&&@&&@@@@O&&O@@@@%+####o;<;258855<925;,1<5:=#####%+@@&&@&&@&&@@@+&@&&-@&&@@@&&@@@&&@&&@@%+@@@@+&@&&-@&+&*&&@&+&*&&@&&@&&@@@@%+@@@@@@%+@@@@@@@@@@@@@@@@@@@@@@@@@@@@@@@@@@@@@@@@@@@@@@@@@@@@@@@@@@@@@%$  ",
"+@@@&&@@@&&@@@O&+&&@&&@@@&&@@@@@%+@@@@@@@@@@@@@@&&@&&O&&O*@O&+&&@&&*&O@&&@@@@@@@@@@@@@@@@@%+@@@&&@@@&&@O&+&&@&&@@+&@&&O@@@@%+####o;;50qqqwe59r25,<05;=#####%+@@&&@&&@&&@@@O&&&&+@&&@@@&&@@@&&@&&@@%+@@@@O&&&&+@&@&@&&@&@&@&&@O&+&&@@@@%+@@@@@@%+@@@@@@@@@@@@@@@@@@@@@@@@@@@@@@@@@@@@@@@@@@@@@@@@@@@@@@@@@@@@@%$  ",
"+@@@&&&&+&&&&@+&&&+@&&&&@&&&&+@@%+@@@@@@@@@@@@@@O&&&&**&&&&+O&&O@&&@&&@&&&&@@@@@@@@@@@@@@@%+@@@&&&&+&&@+&&&+@&&&&O&&&&*@@@@%+####o2eetyyttqqu0ee:iqe5=#####%+@@&&@&&@&&&&@O&@@&O@&&&&+&&@@@&&@&&@@%+@@@@O&@@&O@&@&@&&@&@&@&&@+O&&O@@@@%+@@@@@@%+@@@@@@@@@@@@@@@@@@@@@@@@@@@@@@@@@@@@@@@@@@@@@@@@@@@@@@@@@@@@@%$  ",
"+@@@&&&&*&&&&@@+&+@@&&&&@&&&&*@@%+@@@@@@@@@@@@@@@*O&@@@*O&&@+&O*@&&@&&@&&&&@@@@@@@@@@@@@@@%+@@@&&&&*&&@@+&+@@&&&&@O&&O@@@@@%+####o2eqppppppiaq0s<ipw2o#####%+@@&&@&&@&&&&@&&@@&&@&&&&*&&@@@&&@&&@@%+@@@@&&@@&&@&@&@&&@&@&@&&@@+&O*@@@@%+@@@@@@%+@@@@@@@@@@@@@@@@@@@@@@@@@@@@@@@@@@@@@@@@@@@@@@@@@@@@@@@@@@@@@%$  ",
"+@@@@@@@@@@@@@@@@@@@@@@@@@@@@@@@%+@@@@@@@@@@@@@@@@@@@@@@@@@@@@@@@@@@@@@@@@@@@@@@@@@@@@@@@@%+@@@@@@@@@@@@@@@@@@@@@@@@@@@@@@@%+####o2eistippppiausippq2o#####%+@@@@@@@@@@@@@@@@@@@@@@@@@@@@@@@@@@@@@%+@@@@@@@@@@@@@@@@@@@@@@@@@@@@@@@@@@%+@@@@@@d+@@@@@@@@@@@@@@@@@@@@@@@@@@@@@@@@@@@@@@@@@@@@@@@@@@@@@@@@@@@@@d$  ",
"+@@@@@@@@@@@@@@@@@@@@@@@@@@@@@@@%+@@@@@@@@@@@@@@@@@@@@@@@@@@@@@@@@@@@@@@@@@@@@@@@@@@@@@@@@%+@@@@@@@@@@@@@@@@@@@@@@@@@@@@@@@%+####ofwqipghgpppquiphiq2o#####%+@@@@@@@@@@@@@@@@@@@@@@@@@@@@@@@@@@@@@%+@@@@@@@@@@@@@@@@@@@@@@@@@@@@@@@@@@%+@@@@@@d+@@@@@@@@@@@@@@@@@@@@@@@@@@@@@@@@@@@@@@@@@@@@@@@@@@@@@@@@@@@@@d$  ",
"+@@@@@@@@@@@@@@@@@@@@@@@@@@@@@@@%+@@@@@@@@@@@@@@@@@@@@@@@@@@@@@@@@@@@@@@@@@@@@@@@@@@@@@@@@%+@@@@@@@@@@@@@@@@@@@@@@@@@@@@@@@%+####ofwi=o#jqyyisq##kgqfo#####%+@@@@@@@@@@@@@@@@@@@@@@@@@@@&l&@-zz@@@%+@@@@@@@@@@@@@@@@@@@@@@@@@@@@@@@@@@%+@@@@@@d+@@@@@@@@@@@@@@@@@@@@@@@@@@@@@@@@@@@@@@@@@@@@@@@@@@@@@@@@@@@@@d$  ",
"+@@@@@@@@@@@@@@@@@@@@@@@@@@@@@@@%+@@@@@@@@@@@@@@@@@@@@@@@@@@@@@@@@@@@@@@@@@@@@@@@@@@@@@@@@%+@@@@@@@@@@@@@@@@@@@@@@@@@@@@@@@d+###otxqkcv...jjj..ovckixto####%+@@@@@@@@@@@@@@@@@@@@@@@@@@@lll@Olz@@@d+@@@@@@@@@@@@@@@@@@@@@@@@@@@@@@@@@@d+@@@@@@d+@@@@@@@@@@@@@@@@@@@@@@@@@@@@@@@@@@@@@@@@@@@@@@@@@@@@@@@@@@@@@d$  ",
"+@@@@@@@@@@@@@@@@@@@@@@@@@@@@@@@d+@@@@@@@@@@@@@@@@@@@@@@@@@@@@@@@@@@@@@@@@@@@@@@@@@@@@@@@@%+@@@@@@@@@@@@@@@@@@@@@@@@@@@@@@@d+###oqxqqbnmMNBVjNbnmMqqxso####%+@@@@@@@@@@@@@@@@@@@@@@@@@@@&l&@zlO@@@d+@@@@@@@@@@@@@@@@@@@@@@@@@@@@@@@@@@d+@@@@@@d+@@@@@@@@@@@@@@@@@@@@@@@@@@@@@@@@@@@@@@@@@@@@@@@@@@@@@@@@@@@@@d$  ",
"+@@@@@@@@@@@@@@@@@@@@@@@@@@@@@@@d+@@@@@@@@@@@@@@@@@@@@@@@@@@@@@@@@@@@@@@@@@@@@@@@@@@@@@@@@d+@@@@@@@@@@@@@@@@@@@@@@@@@@@@@@@d+###owCqyttttyiZtpttttyqCwo####%+@@@@@@@@@@@@@@@@@@@@@@@@@@@@@@-zl-@@@d+@@@@@@@@@@@@@@@@@@@@@@@@@@@@@@@@@@d+@@@@@@d+@@@@@@@@@@@@@@@@@@@@@@@@@@@@@@@@@@@@@@@@@@@@@@@@@@@@@@@@@@@@@d$  ",
"+@@@@@@@@@@@@@@@@@@@@@@@@@@@@@@@d+@@@@@@@@@@@@@@@@@@@@@@@@@@@@@@@@@@@@@@@@@@@@@@@@@@@@@@@@d+@@@@@@@@@@@@@@@@@@@@@@@@@@@@@@@d+###oqstZZhhZytgpppZhhZtyqo####%+@@@@@@@@@@@@@@@@@@@@@@@@@@@@@@&lz@@@@d+@@@@@@@@@@@@@@@@@@@@@@@@@@@@@@@@@@d+@@@@@@d+@@@@@@@@@@@@@@@@@@@@@@@@@@@@@@@@@@@@@@@@@@@@@@@@@@@@@@@@@@@@@d$  ",
"+@@@@@@@@@@@@@@@@@@@@@@@@@@@@@@@d+@@@@@@@@@@@@@@@@@@@@@@@@@@@@@@@@@@@@@@@@@@@@@@@@@@@@@@@@d+@@@@@@@@@@@@@@@@@@@@@@@@@@@@@@@d+###osBtpZZppAiZpVppZZptqto####%+@@@@@@@@@@@@@@@@@@@@@@@@@@@@@@zlO@@@@d+@@@@@@@@@@@@@@@@@@@@@@@@@@@@@@@@@@d+@@@@@@d+@@@@@@@@@@@@@@@@@@@@@@@@@@@@@@@@@@@@@@@@@@@@@@@@@@@@@@@@@@@@@d$  ",
"+@@@@@@@@@@@@@@@@@@@@@@@@@@@@@@@d+@@@@@@@@@@@@@@@@@@@@@@@@@@@@@@@@@@@@@@@@@@@@@@@@@@@@@@@@d+@@@@@@@@@@@@@@@@@@@@@@@@@@@@@@@d+####j6BipppVj777etpppiB6j#####%+@@@@@@@@@@@@@@@@@@@@@@@@@@@@@-zl-@@@@d+@@@@@@@@@@@@@@@@@@@@@@@@@@@@@@@@@@d+@@@@@@d+@@@@@@@@@@@@@@@@@@@@@@@@@@@@@@@@@@@@@@@@@@@@@@@@@@@@@@@@@@@@@d$  ",
"+@@@@@@@@@@@@@@@@@@@@@@@@@@@@@@@d+@@@@@@@@@@@@@@@@@@@@@@@@@@@@@@@@@@@@@@@@@@@@@@@@@@@@@@@@d+@@@@@@@@@@@@@@@@@@@@@@@@@@@@@@@d+####o6tqtyytssAtyipptqs6o#####%+@@@@@@@@@@@@@@@@@@@@@@@@@@@@@Olz@@@@@d+@@@@@@@@@@@@@@@@@@@@@@@@@@@@@@@@@@d+@@@@@@d+@@@@@@@@@@@@@@@@@@@@@@@@@@@@@@@@@@@@@@@@@@@@@@@@@@@@@@@@@@@@@dS  ",
"+@@@@@@@@@@@@@@@@@@@@@@@@@@@@@@@d+@@@@@@@@@@@@@@@@@@@@@@@@@@@@@@@@@@@@@@@@@@@@@@@@@@@@@@@@d+@@@@@@@@@@@@@@@@@@@@@@@@@@@@@@@d+####=6isyyViyytypiVppst6=#####%+@@@@@@@@@@@@@@@@@@@@@@@@@@@@@&lO@@@@@d+@@@@@@@@@@@@@@@@@@@@@@@@@@@@@@@@@@d+@@@@@@d+@@@@@@@@@@@@@@@@@@@@@@@@@@@@@@@@@@@@@@@@@@@@@@@@@@@@@@@@@@@@@dS  ",
"+@@@@@@@@@@@@@@@@@@@@@@@@@@@@@@@d+@@@@@@@@@@@@@@@@@@@@@@@@@@@@@@@@@@@@@@@@@@@@@@@@@@@@@@@@d+@@@@@@@@@@@@@@@@@@@@@@@@@@@@@@@d+#####oitypBeBAAABeBpptio######%+@@@@@@@@@@@@@@@@@@@@@@@@@@@@-zl-@@@@@d+@@@@@@@@@@@@@@@@@@@@@@@@@@@@@@@@@@d+@@@@@@d+@@@@@@@@@@@@@@@@@@@@@@@@@@@@@@@@@@@@@@@@@@@@@@@@@@@@@@@@@@@@@dS  ",
"+@@@@@@@@@@@@@@@@@@@@@@@@@@@@@@@d+@@@@@@@@@@@@@@@@@@@@@@@@@@@@@@@@@@@@@@@@@@@@@@@@@@@@@@@@d+@@@@@@@@@@@@@@@@@@@@@@@@@@@@@@@d+#####oiiptisyppgpsitpDyX######%+@@@@@@@@@@@@@@@@@@@@@@@@@@@@&lz@@@@@@d+@@@@@@@@@@@@@@@@@@@@@@@@@@@@@@@@@@d+@@@@@@d+@@@@@@@@@@@@@@@@@@@@@@@@@@@@@@@@@@@@@@@@@@@@@@@@@@@@@@@@@@@@@dS  ",
"+@@@@@@@@@@@@@@@@@@@@@@@@@@@@@@@d+@@@@@@@@@@@@@@@@@@@@@@@@@@@@@@@@@@@@@@@@@@@@@@@@@@@@@@@@d+@@@@@@@@@@@@@@@@@@@@@@@@@@@@@@@d+#####oqipppitVaVtipppiyX######%+@@@@@@@@@@@@@@@@@@@@@@@@@@@@zl*@@@@@@d+@@@@@@@@@@@@@@@@@@@@@@@@@@@@@@@@@@d+@@@@@@d+@@@@@@@@@@@@@@@@@@@@@@@@@@@@@@@@@@@@@@@@@@@@@@@@@@@@@@@@@@@@@dS  ",
"+@@@@@@@@@@@@@@@@@@@@@@@@@@@@@@@d+@@@@@@@@@@@@@@@@@@@@@@@@@@@@@@@@@@@@@@@@@@@@@@@@@@@@@@@@d+@@@@@@@@@@@@@@@@@@@@@@@@@@@@@@@d+#####oeqDpZhZppppZhpitpX######%+@@@@@@@@@@@@@@@@@@@@@@@@@@@-lz@&l&@@@d+@@@@@@@@@@@@@@@@@@@@@@@@@@@@@@@@@@d+@@@@@@d+@@@@@@@@@@@@@@@@@@@@@@@@@@@@@@@@@@@@@@@@@@@@@@@@@@@@@@@@@@@@@dS  ",
"+@@@@@@@@@@@@@@@@@@@@@@@@@@@@@@@d+@@@@@@@@@@@@@@@@@@@@@@@@@@@@@@@@@@@@@@@@@@@@@@@@@@@@@@@@d+@@@@@@@@@@@@@@@@@@@@@@@@@@@@@@@d+#####oCeqtpppiqippptVsp=######%+@@@@@@@@@@@@@@@@@@@@@@@@@@@zlO@lll@@@d+@@@@@@@@@@@@@@@@@@@@@@@@@@@@@@@@@@d+@@@@@@d+@@@@@@@@@@@@@@@@@@@@@@@@@@@@@@@@@@@@@@@@@@@@@@@@@@@@@@@@@@@@@dS  ",
"+@@@@@@@@@@@@@@@@@@@@@@@@@@@@@@@d+@@@@@@@@@@@@@@@@@@@@@@@@@@@@@@@@@@@@@@@@@@@@@@@@@@@@@@@@d+@@@@@@@@@@@@@@@@@@@@@@@@@@@@@@@d+#####oC4eBqqqujuqqqBepp=######%+@@@@@@@@@@@@@@@@@@@@@@@@@@@zz-@&l&@@@d+@@@@@@@@@@@@@@@@@@@@@@@@@@@@@@@@@@d+@@@@@@d+@@@@@@@@@@@@@@@@@@@@@@@@@@@@@@@@@@@@@@@@@@@@@@@@@@@@@@@@@@@@@dS  ",
"+@@@@@@@@@@@@@@@@@@@@@@@@@@@@@@@d+@@@@@@@@@@@@@@@@@@@@@@@@@@@@@@@@@@@@@@@@@@@@@@@@@@@@@@@@d+@@@@@@@@@@@@@@@@@@@@@@@@@@@@@@@d+#####=C94888889455CCupp=######%+@@@@@@@@@@@@@@@@@@@@@@@@@@@@@@@@@@@@@d+@@@@@@@@@@@@@@@@@@@@@@@@@@@@@@@@@@d+@@@@@@d+@@@@@@@@@@@@@@@@@@@@@@@@@@@@@@@@@@@@@@@@@@@@@@@@@@@@@@@@@@@@@dS  ",
"+@@@@@@@@@@@@@@@@@@@@@@@@@@@@@@@d+@@@@@@@@@@@@@@@@@@@@@@@@@@@@@@@@@@@@@@@@@@@@@@@@@@@@@@@@d+@@@@@@@@@@@@@@@@@@@@@@@@@@@@@@@d+#####=C96556eeeeejupput#######%+@@@@@@@@@@@@@@@@@@@@@@@@@@@@@@@@@@@@@d+@@@@@@@@@@@@@@@@@@@@@@@@@@@@@@@@@@d+@@@@@@d+@@@@@@@@@@@@@@@@@@@@@@@@@@@@@@@@@@@@@@@@@@@@@@@@@@@@@@@@@@@@@dS  ",
"+@@@@@@@@@@@@@@@@@@@@@@@@@@@@@@@d+@@@@@@@@@@@@@@@@@@@@@@@@@@@@@@@@@@@@@@@@@@@@@@@@@@@@@@@@d+@@@@@@@@@@@@@@@@@@@@@@@@@@@@@@@d+######5956eeqwuuujiDppu#######%+@@@@@@@@@@@@@@@@@@@@@@@@@@@@@@@@@@@@@d+@@@@@@@@@@@@@@@@@@@@@@@@@@@@@@@@@@d+@@@@@@d+@@@@@@@@@@@@@@@@@@@@@@@@@@@@@@@@@@@@@@@@@@@@@@@@@@@@@@@@@@@@@dS  ",
"+@@@@@@@@@@@@@@@@@@@@@@@@@@@@@@@d+@@@@@@@@@@@@@@@@@@@@@@@@@@@@@@@@@@@@@@@@@@@@@@@@@@@@@@@@d+@@@@@@@@@@@@@@@@@@@@@@@@@@@@@@@d+######556eAqiqpptuqZtt0#######%+@@@@@@@@@@@@@@@@@@@@@@@@@@@@@@@@@@@@@d+@@@@@@@@@@@@@@@@@@@@@@@@@@@@@@@@@@d+@@@@@@d+@@@@@@@@@@@@@@@@@@@@@@@@@@@@@@@@@@@@@@@@@@@@@@@@@@@@@@@@@@@@@dS  ",
"@%%%%%%%%%%%%%%dddddddddddddddddd@%%%%%%%%%%%%%%%%%%%%%%%%%dddddddddddddddddddddddddddddddd@%%%%%%%%%%%%dddddddddddddddddddd#%%%%%%%%%%%%%%%%%%%%%%%%%%%%%%%@%%%%%%%%%%%%%%%%%%dddddddddddddddddddd@%%%%%%%%%%ddddddddddddddddddddddddd@%dddddd@%%%%%%%%%%%%%%%%%%%%%%ddddddddddddddddddddddddddddddddddddddddS  ",
"FFFFFFFFFFFFFFFFFFFFFFFFFFFFFFFFFFFFFFFFFFFFFFFFFFFFFFFFFFFFFFFFFFFFFFFFFFFFFFFFFFFFFFFFFFFFFFFFF$$$$$$$$$$$$$$$$$$$$$$$$$$$$$$$$$$$$$$$$$$$$$$$$$$$$$$$$$$$$$$$$$$$$$$$$$$$$$$$$$$$$$$$$$$$$$$$$$$$$$$$$$$$$$$$$$$$$$$$$$$$$$$$$$$$$$$$$$$$$$$$$$$$$$$$$$$$$$$$$$SSSSSSSSSSSSSSSSSSSSSSSSSSSSSSSSSSSSSSSSSSSSS  ",
"                                                                                                                                                                                                                                                                                                                 "
};
